Patient4_TMGait_0pt6_01_right_35_EMG.mot
version=1
nRows=37
nColumns=33
inDegrees=no
endheader
time	1LAddLong	2LGlutMax	3LGlutMed	4LIliopsoas	5LSemiMemb	6LBicFemLong	7LRecFem	8LVastMed	9LVastLat	10LGasMed	11LTibAnt	12lTibPost	13LPeroneusLong	14LSol	15LExtDigLong	16LFlexDigLong	17RAddLong	18RGlutMax	19RGlutMed	20RIliopsoas	21RSemiMemb	22RBicFemLong	23RRecFem	24RVastMed	25RVastLat	26RGasMed	27RTibAnt	28RTibPost	29RPeroneusLong	30RSol	31RExtDigLong	32RFlexDigLong
42.425	-0.008392	-0.88058	-0.041504	-0.011902	0.006866	-0.007324	0.40329	0.006866	0.063477	0.074921	0.07309	0.008698	-0.072021	0.054626	-0.43823	-0.006866	0.027313	-0.96008	-0.77057	0.025177	0.14786	-0.93842	-0.000153	0.12955	0.053101	0.048981	0.18753	0.14145	-0.68024	0.1387	-0.000916	-0.012512
42.426	0.002899	-0.68115	-0.053711	-0.01297	0.009003	0.00351	0.4776	0.012817	0.062408	0.06134	0.059662	0.009918	-0.044708	0.056763	-0.000458	-0.000305	0.034485	-0.98587	-0.85602	0.010529	0.10437	-0.70862	0.014191	0.072937	0.035248	0.019531	0.098572	-0.20035	-0.091705	-0.46387	0	-0.002441
42.427	-0.001068	-0.48096	-0.058594	-0.007477	0.007019	-0.010376	0.59418	0.009918	0.06424	0.060272	-0.065002	0.011139	-0.057373	0.050201	0.055847	0.002136	0.023956	-0.89645	-0.6163	0.038452	-0.059814	-0.38238	0.14191	0.097961	-0.031738	-0.02121	0.013123	-0.058289	0.2272	-1.2946	0.000916	-0.00824
42.428	0.007324	-0.27542	-0.061951	-0.021667	0.002136	-0.009918	0.55924	0.011139	0.054779	0.040741	-0.12283	0.010834	-0.087891	0.053101	0.10788	0.000305	0.002747	-0.84885	-0.44662	0.013123	-0.10162	-0.31876	0.10559	0.26154	-0.000916	-0.13718	0.035095	0.10178	0.42557	-1.3983	-0.011902	-0.030365
42.429	0.003815	-0.11643	-0.066376	-0.023346	0.009003	0.009766	0.53925	0.011597	0.059814	0.072174	-0.064087	0.001984	-0.078583	0.055542	0.19699	0.010681	0.00061	-0.80307	-0.67078	0.008392	-0.28198	-0.17349	0.08316	0.25375	0.002441	-0.10635	0.070953	-0.23148	0.23041	-0.38727	0.001221	-0.043945
42.43	0.010223	-0.007324	-0.074921	-0.007629	0.013885	0.005798	0.45883	0.004425	0.068207	0.042725	-0.066681	0.011139	-0.071716	0.13138	0.075531	0.013123	-0.013885	-0.71579	-0.90256	0.007629	-0.13397	-0.084686	0.014038	0.14282	-0.02121	-0.089569	0.053864	-0.11368	-0.000763	0.09964	-0.000305	-0.04303
42.431	0.003357	0.073242	-0.078583	0.00885	0.011749	0.019379	0.33325	0.00412	0.069275	0.01297	0.013275	-0.000153	-0.038605	0.18845	-0.023193	0.014648	0.002899	-0.67535	-0.74554	-0.000763	-0.064697	-0.11841	-0.12512	0.041046	-0.027008	-0.067902	0.11185	0.061188	-0.012512	0.32501	-0.001068	-0.026703
42.432	0.003815	0.12558	-0.096588	0.015717	0.009918	0.016632	0.19272	0.001831	0.077972	0.042725	0.038605	0.005798	-0.12177	0.1564	-0.13916	0.009003	0.019684	-0.57709	-0.80154	-0.026093	-0.070343	-0.15045	-0.07309	-0.042267	-0.034027	0.017548	0.065002	0.37369	0.18723	0.44342	-0.002441	-0.024567
42.433	0.006104	0.20477	-0.10544	0.004425	0.008698	0.007935	0.084534	0.043488	0.10208	0.076752	0.082397	0.022736	-0.16296	0.11765	0.13916	0.010681	-0.00061	-0.43655	-0.79346	-0.042267	-0.05127	0.015564	-0.17197	-0.087738	-0.041504	0.071564	0.015106	0.24704	0.25009	0.30243	-0.000305	-0.012207
42.434	-0.00061	0.29312	-0.10635	0.007477	0.006866	0.023193	0.13733	0.014954	0.12329	0.054626	0.20828	-0.006714	-0.10986	0.053558	0.17334	0.004425	-0.015564	-0.34912	-0.64224	-0.02121	0.016022	-0.082245	-0.13718	-0.19882	-0.029449	0.10498	0.010986	0.081482	0.15015	0.6807	-0.00351	-0.011749
42.435	0.000763	0.38727	-0.12161	-0.02533	0.00885	0.018768	0.12634	-0.013885	0.13596	0.046997	0.13229	-0.001221	-0.033722	0.06424	0.1471	0.006561	0.000763	-0.27527	-0.65918	-0.070343	0.088806	-0.040894	-0.20691	-0.10742	-0.018158	0.044403	-0.18921	0.090942	0.13123	0.72159	0.00061	-0.024109
42.436	-0.002136	0.51468	-0.1413	-0.019073	0.006409	0.026398	-0.049591	-0.005341	0.14771	0.056	0.1413	0.00473	-0.070496	0.10025	0.15564	0.000153	-0.017548	-0.16113	-0.75867	-0.010529	0.044556	0.075684	-0.25665	0.011444	0.040131	0.020599	-0.10559	0.014801	0.044556	0.70511	0.00061	-0.007935
42.437	0.008087	0.60959	-0.13306	-0.013428	0.011597	0.021515	-0.065002	-0.013275	0.15579	0.052643	-0.014343	-0.001068	-0.081787	0.058899	-0.15091	0.009918	-0.001984	-0.055237	-0.70328	0.066528	-0.028687	-0.2092	-0.16556	0.038452	0.075226	0.019226	-0.10086	-0.024719	0.076904	0.37705	0.000153	-0.00061
42.438	0.005798	0.72983	-0.1445	-0.004578	0.006866	0.023041	0.026093	-0.011749	0.14099	0.035706	-0.019684	-0.002289	-0.013885	0.03891	-0.24033	-0.004883	0.025635	0.036011	-0.75302	0.15656	-0.009003	-0.48859	-0.053711	0.071259	0.13031	0.014038	-0.001526	-0.039215	0.080109	0.21103	-0.001221	0.00412
42.439	0.007172	0.88333	-0.13168	0.010986	0.014801	-0.000458	0.083313	-0.010834	0.11246	0.026398	0.043488	0.014191	0.018005	0.13397	-0.24612	0.000916	0.046082	0.20203	-0.62805	0.14786	-0.040588	-0.35782	0.027161	0.069122	0.11597	0.043793	0.12878	-0.049438	0.14175	0.20798	-0.001831	-0.005798
42.44	0.019684	1.0057	-0.13672	0.005951	0.008087	-0.008392	0.094757	-0.004425	0.095825	0.036469	0.023956	0.007629	-0.072632	0.12238	-0.026398	0.002289	0.03952	0.24689	-0.62485	0.04837	-0.08728	-0.077057	0.000305	0.1236	0.079041	0.03006	0.13138	0.010529	0.12848	0.23041	-0.001526	-0.004425
42.441	0.009766	1.1584	-0.15381	-0.005493	0.012817	-0.016785	0.10452	-0.005341	0.082397	0.045776	0.040436	-0.004425	-0.13641	0.002136	0.018311	-0.015106	0.02182	0.33646	-0.71259	0.017242	-0.059814	-0.25559	0.036926	0.070953	0.048828	0.007324	0.42709	-0.040588	0.023499	0.25894	0.000305	0.00946
42.442	0.006866	1.2582	-0.15198	-0.003204	0.006561	0.007019	0.13077	0.003815	0.080414	0.039825	-0.045929	-0.00885	-0.045166	-0.012817	-0.005035	-0.001984	0.003052	0.31601	-0.75668	0.033264	-0.019531	-0.39398	0.056915	0.020752	0.028839	-0.076752	0.83221	-0.032196	-0.14572	0.39459	-0.004578	0.009308
42.443	0.002899	1.4603	-0.15457	-0.005035	0.013123	-0.017242	0.14679	0.005798	0.071259	0.039215	-0.074768	-0.001068	-0.0177	0.071411	0.018158	-0.013275	0.00061	0.33554	-0.64529	0.010376	0.005188	-0.61768	0.13321	0.0177	-0.009155	-0.11643	1.0283	-0.073242	-0.4277	0.36362	-0.003662	0.006714
42.444	0.013123	1.613	-0.15488	-0.018311	0.009003	-0.006104	0.14099	0.009766	0.064392	0.047302	-0.083923	0.007935	-0.046692	0.022888	0.024719	-0.018005	0.016937	0.49393	-0.23987	-0.02594	0.015564	-0.30136	0.15335	0.05661	-0.019226	-0.089417	1.152	-0.1329	-0.5365	0.082092	-0.004272	0.006561
42.445	0.010986	1.7641	-0.15717	-0.007019	0.018616	-0.009613	0.1796	0.004578	0.053864	0.054779	-0.041046	0.006866	-0.064392	0.013428	-0.028076	-0.010376	0.007935	0.58487	-0.14603	-0.058746	0.11002	-0.19455	0.16739	0.037231	-0.050354	-0.027466	0.49393	-0.2124	-0.092163	-0.19775	0.00061	-0.001831
42.446	0.006714	1.8835	-0.1593	0.000458	0.009918	-0.03006	0.15167	-0.011139	0.04425	0.053253	-0.002594	0.005341	-0.092316	0.006409	0.004578	-0.021057	-0.001068	0.62973	-0.29495	-0.075989	0.14893	-0.22705	-0.103	0.031586	-0.025635	0.050964	-0.10529	0.00885	0.17441	-0.49698	0.000916	-0.005951
42.447	0.008698	1.9792	-0.1593	0.005493	0.005951	-0.00885	0.11322	-0.010376	0.043335	0.050201	0.045166	0.016937	-0.091553	0.069275	0.045471	-0.014648	-0.005188	0.73212	-0.36758	-0.022736	0.074768	-0.2179	-0.34347	0.00061	0.084839	0.13611	-1.8417	0.031586	0.2449	-0.49881	-0.000916	-0.007019
42.448	0.014343	2.0749	-0.15579	0.024414	0.007172	-0.017242	0.13443	-0.010223	0.036011	0.04837	0.18127	0.018158	-0.089874	0.077057	0.099792	-0.019379	0.002136	0.78293	-0.47577	-0.006256	0.037689	-0.31952	-0.22095	-0.121	0.066528	0.051575	-1.7613	-0.29297	0.038605	-0.22675	0.003357	-0.015259
42.449	0.013275	2.1962	-0.1471	0.039368	0.009308	-0.007629	0.11917	-0.007324	0.018158	0.022888	0.1387	0.003662	-0.076294	0.09903	0.059509	-0.019836	0.013123	0.87112	-0.39047	-0.02182	0.028381	-0.22629	-0.16678	-0.16464	-0.056305	0.002441	-0.38116	0.19241	0.12131	-0.083466	0.003052	-0.015106
42.45	0.006866	2.2737	-0.17288	0.023651	0.01358	-0.017548	0.056763	-0.006866	-0.001373	0.007935	0.094757	0.007172	-0.003357	0.074463	0.03006	-0.010529	0.006104	0.89905	-0.52719	-0.013885	0.013428	-0.17731	-0.16037	-0.046539	-0.063782	0.031281	0.037079	0.13626	0.14435	-0.32654	0.001526	-0.018616
42.451	0.00824	2.2972	-0.17334	-0.013428	0.010529	-0.022583	0.010529	0.000305	-0.007629	0.01709	0.00946	0.015869	0.018311	0.07019	0.046539	-0.013428	0.019073	0.93399	-0.63675	-0.045166	-0.010681	-0.1622	0.001526	0.015106	-0.091248	0.036774	-0.2298	0.05127	0.063171	-0.17441	-0.001678	-0.019226
42.452	0.010681	2.3216	-0.16464	-0.007935	0.009308	-0.010223	0.0177	0.014801	-0.016785	0.023499	-0.013733	0.014191	-0.018768	0.036926	0.063782	-0.009003	0.015869	0.96405	-0.9082	-0.03952	-0.079346	-0.10712	0.18601	0.13779	-0.085602	0.012817	-0.34256	0.045929	-0.034027	-0.014496	-0.000916	-0.016022
42.453	0.010071	2.3059	-0.16464	-0.013733	0.010834	-0.036316	0.11169	0.004883	-0.014038	0.039978	-0.11826	0.010376	-0.038757	0.037231	0.28458	-0.02243	0.028992	1.0129	-0.80246	-0.005341	-0.12222	-0.085449	0.25085	0.11643	0.007324	-0.029907	-0.27954	-0.000458	-0.050507	0.2066	0.001526	-0.014648
42.454	0.010681	2.2496	-0.15762	-0.007477	0.006561	-0.027924	0.20248	0.000458	-0.007324	0.058136	-0.11963	0.011749	-0.053101	0.038605	0.76477	-0.007019	0.010834	1.0745	0.095825	-0.010681	-0.067444	-0.073242	0.15076	0.14114	0.059357	-0.033569	0.093231	-0.02533	-0.090332	0.18692	0.001221	-0.004578
42.455	0.014496	2.1974	-0.15503	-0.006866	0.013885	-0.027771	0.30487	-0.003967	0.003357	0.0383	-0.16022	0.01358	0.001831	0.050201	0.040283	-0.004425	0.000305	1.049	0.19104	-0.001526	-0.11215	-0.073853	0.1001	0.10468	0.073853	-0.053558	0.67154	-0.031128	0.082703	0.1683	-0.001831	-0.010071
42.456	0.011749	2.1298	-0.18433	-0.007019	0.007477	-0.036926	0.32089	-0.005951	0.012665	0.001984	-0.12756	0.001678	0.051727	0.095215	-0.055237	-0.002899	0.007477	0.98908	-0.18875	-0.012054	-0.096283	-0.048523	0.22995	0.088806	0.031433	-0.083008	0.39734	-0.023804	0.79865	-0.16785	-0.001221	-0.013275
42.457	-0.004272	2.0737	-0.19775	-0.003357	0.01358	-0.032196	0.37064	-0.019531	0.00473	0.02182	-0.092316	0.012665	0.017395	0.1326	-0.22171	-0.001984	0.009613	0.94147	-0.58594	0.015106	0.04837	-0.090942	0.2182	0.071564	-0.001526	-0.037079	0.11261	-0.045471	1.237	-0.53223	-0.007629	-0.009613
42.458	0.016327	1.9882	-0.18997	-0.01709	0.00885	-0.025177	0.26215	-0.007019	-0.017548	0.036469	0.12192	0.010223	-0.001678	0.12772	-0.31265	0.003052	0.006104	1.0052	-0.54657	0.033569	0.088959	-0.12878	0.24246	0.020752	-0.002747	0.11856	-0.15076	-0.049286	0.55862	-0.54108	-0.002747	-0.00412
42.459	0.011902	1.8785	-0.18112	-0.006714	0.007324	-0.047455	0.13809	-0.005188	-0.018921	0.026855	0.13702	0.011139	0.025482	0.095673	-0.336	0.002136	-0.007019	1.0532	-0.79834	0.037537	-0.050049	-0.11353	0.17792	0.022278	-0.019989	0.10666	0.004883	0.000305	-0.31387	0.1532	-0.000305	-0.010681
42.46	0.0177	1.8221	-0.1915	-0.007782	-0.001068	-0.029297	0.024872	-0.004883	-0.004883	0.007172	-0.092621	0.007477	0.075836	0.067902	-0.20844	0.005646	-0.003357	1.0155	-0.86334	0.015717	-0.066376	-0.13138	0.097351	-0.006256	-0.070648	0.061035	0.19379	-0.015259	-0.85525	0.75134	0.000458	-0.010681
42.461	0.002899	1.7584	-0.21286	-0.011597	0.010986	-0.029755	0.010376	-0.006409	0.006409	0.007324	-0.074615	0.006409	-0.004883	0.090485	-0.29877	0.001373	0.016479	0.93277	-0.81039	0.063934	-0.023193	-0.19806	0.079803	-0.018311	-0.064392	0.038757	0.064087	-0.019073	-1.2624	0.58777	-0.007935	-0.00824
